<svg xmlns="http://www.w3.org/2000/svg" fill="none" viewBox="0 0 24 24" width="24" height="24">
  <path fill="white" d="M12 0c-6.627 0-12 5.373-12 12 0 5.303 3.438 9.801 8.207 11.392.6.111.828-.263.828-.585 0-.291-.011-1.079-.015-2.117-3.338.73-4.038-1.616-4.038-1.616-.544-1.378-1.329-1.745-1.329-1.745-1.086-.742.082-.727.082-.727 1.202.085 1.832 1.24 1.832 1.24 1.067 1.823 2.803 1.295 3.491.992.105-.772.418-1.295.762-1.595-2.663-.3-5.466-1.333-5.466-5.935 0-1.311.468-2.384 1.236-3.22-.124-.3-.536-1.513.117-3.152 0 0 1.007-.322 3.303 1.228.96-.267 1.988-.399 3.005-.405 1.016.006 2.045.138 3.005.405 2.296-1.55 3.303-1.228 3.303-1.228.653 1.639.242 2.852.118 3.152.768.836 1.236 1.909 1.236 3.22 0 4.612-2.803 5.634-5.466 5.935.344.3.657.898.657 1.801 0 1.305-.011 2.359-.011 2.678 0 .323.228.697.828.585 4.769-1.591 8.207-6.089 8.207-11.392 0-6.627-5.373-12-12-12z"/>
</svg>
